<?xml version="1.0" encoding="UTF-8" standalone="no"?>
<svg
   width="650"
   height="650"
   viewBox="-2015 -2000 4030 4030"
   version="1.1"
   id="svg6"
   sodipodi:docname="Maple_Leaf.svg"
   inkscape:version="1.1 (c68e22c387, 2021-05-23)"
   xmlns:inkscape="http://www.inkscape.org/namespaces/inkscape"
   xmlns:sodipodi="http://sodipodi.sourceforge.net/DTD/sodipodi-0.dtd"
   xmlns="http://www.w3.org/2000/svg"
   xmlns:svg="http://www.w3.org/2000/svg">
  <defs
     id="defs10" />
  <sodipodi:namedview
     id="namedview8"
     pagecolor="#ffffff"
     bordercolor="#666666"
     borderopacity="1.0"
     inkscape:pageshadow="2"
     inkscape:pageopacity="0.0"
     inkscape:pagecheckerboard="0"
     showgrid="false"
     inkscape:zoom="1.0015385"
     inkscape:cx="325"
     inkscape:cy="325.49923"
     inkscape:window-width="1600"
     inkscape:window-height="837"
     inkscape:window-x="-8"
     inkscape:window-y="-8"
     inkscape:window-maximized="1"
     inkscape:current-layer="svg6" />
  <title
     id="title2">maple leaf from the flag of Canada</title>
  <path
     fill="#ff0000"
     d="m -83.07695,1875 41.53847,-796.6154 A 87.692308,87.692308 0 0 0 -144.00002,987.92308 L -936.9231,1127.3077 -829.84618,831.92308 a 60,60 0 0 0 -18.46154,-67.38462 L -1716.9231,61.153846 -1521.2308,-30.23077 a 60,60 0 0 0 31.3846,-72.92308 l -171.6923,-528 L -1161.2308,-525 a 60,60 0 0 0 67.3846,-35.07692 l 96.9231,-228 L -606.46156,-369 a 60,60 0 0 0 102.46154,-52.61538 l -188.3077,-971.07692 301.84616,174.4615 a 60,60 0 0 0 84,-24.923 L -2e-5,-1845 l 306.46154,601.8462 a 60,60 0 0 0 84,24.923 l 301.84615,-174.4615 -188.30769,971.07692 A 60,60 0 0 0 606.46152,-369 l 390.46153,-419.07692 96.92305,228 A 60,60 0 0 0 1161.2307,-525 l 500.3077,-106.15385 -171.6923,528 a 60,60 0 0 0 31.3846,72.92308 L 1716.9231,61.153846 848.30767,764.53846 a 60,60 0 0 0 -18.46154,67.38462 L 936.92305,1127.3077 143.99998,987.92308 A 87.692308,87.692308 0 0 0 41.53844,1078.3846 L 83.0769,1875 Z"
     id="path4"
     style="stroke-width:124;stroke:#ffffff;stroke-opacity:1;stroke-miterlimit:4;stroke-dasharray:none;paint-order:stroke fill markers" />
</svg>
